<mxfile host="app.diagrams.net" modified="2020-11-16T12:24:24.993Z" agent="5.0 (Macintosh; Intel Mac OS X 10_15_1) AppleWebKit/537.36 (KHTML, like Gecko) Chrome/86.0.4240.193 Safari/537.36" etag="DXxAs1PqaE6RQPK9Ea4z" version="13.9.2" type="github">
  <diagram id="443qivDFrQDBZfOmN-Y3" name="Page-1">
    <mxGraphModel dx="1572" dy="978" grid="1" gridSize="10" guides="1" tooltips="1" connect="1" arrows="1" fold="1" page="1" pageScale="1" pageWidth="850" pageHeight="1100" math="0" shadow="0">
      <root>
        <mxCell id="0" />
        <mxCell id="1" parent="0" />
        <mxCell id="abBLUTNGtvBIBdprKv4x-3" style="edgeStyle=orthogonalEdgeStyle;rounded=0;orthogonalLoop=1;jettySize=auto;html=1;exitX=1;exitY=0.5;exitDx=0;exitDy=0;" parent="1" source="abBLUTNGtvBIBdprKv4x-1" target="abBLUTNGtvBIBdprKv4x-2" edge="1">
          <mxGeometry relative="1" as="geometry" />
        </mxCell>
        <mxCell id="abBLUTNGtvBIBdprKv4x-1" value="" style="ellipse;whiteSpace=wrap;html=1;aspect=fixed;fillColor=#000000;" parent="1" vertex="1">
          <mxGeometry x="50" y="150" width="10" height="10" as="geometry" />
        </mxCell>
        <mxCell id="abBLUTNGtvBIBdprKv4x-6" style="edgeStyle=orthogonalEdgeStyle;rounded=0;orthogonalLoop=1;jettySize=auto;html=1;exitX=1;exitY=0.5;exitDx=0;exitDy=0;entryX=0;entryY=0.5;entryDx=0;entryDy=0;" parent="1" source="abBLUTNGtvBIBdprKv4x-2" target="abBLUTNGtvBIBdprKv4x-8" edge="1">
          <mxGeometry relative="1" as="geometry">
            <mxPoint x="570" y="155" as="targetPoint" />
          </mxGeometry>
        </mxCell>
        <mxCell id="abBLUTNGtvBIBdprKv4x-2" value="Belum login" style="rounded=1;whiteSpace=wrap;html=1;fillColor=#FFFFFF;" parent="1" vertex="1">
          <mxGeometry x="100" y="130" width="90" height="50" as="geometry" />
        </mxCell>
        <mxCell id="abBLUTNGtvBIBdprKv4x-7" value="Login (pasien)" style="text;html=1;strokeColor=none;fillColor=none;align=center;verticalAlign=middle;whiteSpace=wrap;rounded=0;" parent="1" vertex="1">
          <mxGeometry x="210" y="125" width="40" height="20" as="geometry" />
        </mxCell>
        <mxCell id="abBLUTNGtvBIBdprKv4x-19" style="edgeStyle=orthogonalEdgeStyle;rounded=0;orthogonalLoop=1;jettySize=auto;html=1;entryX=0;entryY=0.5;entryDx=0;entryDy=0;" parent="1" source="abBLUTNGtvBIBdprKv4x-8" target="abBLUTNGtvBIBdprKv4x-18" edge="1">
          <mxGeometry relative="1" as="geometry" />
        </mxCell>
        <mxCell id="abBLUTNGtvBIBdprKv4x-8" value="Idle / Mode pengingat jadwal" style="swimlane;fillColor=#FFFFFF;" parent="1" vertex="1">
          <mxGeometry x="270" y="55" width="280" height="200" as="geometry" />
        </mxCell>
        <mxCell id="abBLUTNGtvBIBdprKv4x-10" style="edgeStyle=orthogonalEdgeStyle;rounded=0;orthogonalLoop=1;jettySize=auto;html=1;entryX=0.5;entryY=0;entryDx=0;entryDy=0;" parent="abBLUTNGtvBIBdprKv4x-8" source="abBLUTNGtvBIBdprKv4x-5" target="abBLUTNGtvBIBdprKv4x-9" edge="1">
          <mxGeometry relative="1" as="geometry" />
        </mxCell>
        <mxCell id="abBLUTNGtvBIBdprKv4x-5" value="&lt;font style=&quot;font-size: 12px&quot;&gt;Idle&lt;/font&gt;" style="rounded=1;whiteSpace=wrap;html=1;fillColor=#FFFFFF;arcSize=20;" parent="abBLUTNGtvBIBdprKv4x-8" vertex="1">
          <mxGeometry x="10" y="35" width="50" height="25" as="geometry" />
        </mxCell>
        <mxCell id="abBLUTNGtvBIBdprKv4x-11" style="edgeStyle=orthogonalEdgeStyle;rounded=0;orthogonalLoop=1;jettySize=auto;html=1;" parent="abBLUTNGtvBIBdprKv4x-8" source="abBLUTNGtvBIBdprKv4x-9" target="abBLUTNGtvBIBdprKv4x-5" edge="1">
          <mxGeometry relative="1" as="geometry" />
        </mxCell>
        <mxCell id="abBLUTNGtvBIBdprKv4x-9" value="Mengingatkan jadwal konsumsi obat" style="rounded=1;whiteSpace=wrap;html=1;fillColor=#FFFFFF;arcSize=20;" parent="abBLUTNGtvBIBdprKv4x-8" vertex="1">
          <mxGeometry x="150" y="105" width="110" height="80" as="geometry" />
        </mxCell>
        <mxCell id="abBLUTNGtvBIBdprKv4x-12" value="Sudah waktu untuk konsumsi obat" style="text;html=1;strokeColor=none;fillColor=none;align=center;verticalAlign=middle;whiteSpace=wrap;rounded=0;" parent="abBLUTNGtvBIBdprKv4x-8" vertex="1">
          <mxGeometry x="70" y="55" width="110" height="20" as="geometry" />
        </mxCell>
        <mxCell id="abBLUTNGtvBIBdprKv4x-13" value="Pasien mengkonfirmasi konsumsi obat" style="text;html=1;strokeColor=none;fillColor=none;align=center;verticalAlign=middle;whiteSpace=wrap;rounded=0;" parent="abBLUTNGtvBIBdprKv4x-8" vertex="1">
          <mxGeometry x="20" y="157" width="110" height="20" as="geometry" />
        </mxCell>
        <mxCell id="abBLUTNGtvBIBdprKv4x-14" value="Start" style="text;html=1;strokeColor=none;fillColor=none;align=center;verticalAlign=middle;whiteSpace=wrap;rounded=0;" parent="1" vertex="1">
          <mxGeometry x="35" y="125" width="40" height="20" as="geometry" />
        </mxCell>
        <mxCell id="abBLUTNGtvBIBdprKv4x-22" style="edgeStyle=orthogonalEdgeStyle;rounded=0;orthogonalLoop=1;jettySize=auto;html=1;entryX=0.5;entryY=0;entryDx=0;entryDy=0;" parent="1" source="abBLUTNGtvBIBdprKv4x-18" target="abBLUTNGtvBIBdprKv4x-21" edge="1">
          <mxGeometry relative="1" as="geometry" />
        </mxCell>
        <mxCell id="abBLUTNGtvBIBdprKv4x-18" value="Menunggu resep dari dokter" style="rounded=1;whiteSpace=wrap;html=1;fillColor=#FFFFFF;" parent="1" vertex="1">
          <mxGeometry x="710" y="130" width="90" height="50" as="geometry" />
        </mxCell>
        <mxCell id="abBLUTNGtvBIBdprKv4x-20" value="Pasien mengajukan resep ke dokter" style="text;html=1;strokeColor=none;fillColor=none;align=center;verticalAlign=middle;whiteSpace=wrap;rounded=0;" parent="1" vertex="1">
          <mxGeometry x="570" y="130" width="120" height="20" as="geometry" />
        </mxCell>
        <mxCell id="abBLUTNGtvBIBdprKv4x-24" style="edgeStyle=orthogonalEdgeStyle;rounded=0;orthogonalLoop=1;jettySize=auto;html=1;exitX=0;exitY=0.5;exitDx=0;exitDy=0;entryX=0.5;entryY=1;entryDx=0;entryDy=0;" parent="1" source="abBLUTNGtvBIBdprKv4x-21" target="abBLUTNGtvBIBdprKv4x-8" edge="1">
          <mxGeometry relative="1" as="geometry" />
        </mxCell>
        <mxCell id="abBLUTNGtvBIBdprKv4x-21" value="&lt;font style=&quot;font-size: 11px&quot;&gt;Menunggu pasien menebus obat di apotik&lt;/font&gt;" style="rounded=1;whiteSpace=wrap;html=1;fillColor=#FFFFFF;" parent="1" vertex="1">
          <mxGeometry x="710" y="300" width="90" height="50" as="geometry" />
        </mxCell>
        <mxCell id="abBLUTNGtvBIBdprKv4x-23" value="Resep diterima" style="text;html=1;strokeColor=none;fillColor=none;align=center;verticalAlign=middle;whiteSpace=wrap;rounded=0;" parent="1" vertex="1">
          <mxGeometry x="650" y="230" width="120" height="20" as="geometry" />
        </mxCell>
        <mxCell id="abBLUTNGtvBIBdprKv4x-25" value="Resep ditebus dan obat diterima" style="text;html=1;strokeColor=none;fillColor=none;align=center;verticalAlign=middle;whiteSpace=wrap;rounded=0;" parent="1" vertex="1">
          <mxGeometry x="450" y="300" width="220" height="20" as="geometry" />
        </mxCell>
        <mxCell id="rnjejbEm-blq5eO75BZI-1" value="&lt;font style=&quot;font-size: 18px&quot;&gt;Pasien&lt;/font&gt;" style="text;html=1;align=center;verticalAlign=middle;resizable=0;points=[];autosize=1;" vertex="1" parent="1">
          <mxGeometry x="25" y="40" width="70" height="20" as="geometry" />
        </mxCell>
        <mxCell id="rnjejbEm-blq5eO75BZI-2" value="&lt;font style=&quot;font-size: 18px&quot;&gt;Dokter&lt;/font&gt;" style="text;html=1;align=center;verticalAlign=middle;resizable=0;points=[];autosize=1;" vertex="1" parent="1">
          <mxGeometry x="25" y="430" width="70" height="20" as="geometry" />
        </mxCell>
        <mxCell id="rnjejbEm-blq5eO75BZI-3" style="edgeStyle=orthogonalEdgeStyle;rounded=0;orthogonalLoop=1;jettySize=auto;html=1;exitX=1;exitY=0.5;exitDx=0;exitDy=0;" edge="1" parent="1" source="rnjejbEm-blq5eO75BZI-4" target="rnjejbEm-blq5eO75BZI-6">
          <mxGeometry relative="1" as="geometry" />
        </mxCell>
        <mxCell id="rnjejbEm-blq5eO75BZI-4" value="" style="ellipse;whiteSpace=wrap;html=1;aspect=fixed;fillColor=#000000;" vertex="1" parent="1">
          <mxGeometry x="50" y="515" width="10" height="10" as="geometry" />
        </mxCell>
        <mxCell id="rnjejbEm-blq5eO75BZI-5" style="edgeStyle=orthogonalEdgeStyle;rounded=0;orthogonalLoop=1;jettySize=auto;html=1;exitX=1;exitY=0.5;exitDx=0;exitDy=0;entryX=0;entryY=0.5;entryDx=0;entryDy=0;" edge="1" parent="1" source="rnjejbEm-blq5eO75BZI-6" target="rnjejbEm-blq5eO75BZI-9">
          <mxGeometry relative="1" as="geometry">
            <mxPoint x="270" y="520" as="targetPoint" />
          </mxGeometry>
        </mxCell>
        <mxCell id="rnjejbEm-blq5eO75BZI-6" value="Belum login" style="rounded=1;whiteSpace=wrap;html=1;fillColor=#FFFFFF;" vertex="1" parent="1">
          <mxGeometry x="100" y="495" width="90" height="50" as="geometry" />
        </mxCell>
        <mxCell id="rnjejbEm-blq5eO75BZI-7" value="Login (dokter)" style="text;html=1;strokeColor=none;fillColor=none;align=center;verticalAlign=middle;whiteSpace=wrap;rounded=0;" vertex="1" parent="1">
          <mxGeometry x="210" y="490" width="40" height="20" as="geometry" />
        </mxCell>
        <mxCell id="rnjejbEm-blq5eO75BZI-8" value="Start" style="text;html=1;strokeColor=none;fillColor=none;align=center;verticalAlign=middle;whiteSpace=wrap;rounded=0;" vertex="1" parent="1">
          <mxGeometry x="35" y="490" width="40" height="20" as="geometry" />
        </mxCell>
        <mxCell id="rnjejbEm-blq5eO75BZI-9" value="IDLE" style="rounded=1;whiteSpace=wrap;html=1;fillColor=#FFFFFF;" vertex="1" parent="1">
          <mxGeometry x="270" y="495" width="90" height="50" as="geometry" />
        </mxCell>
        <mxCell id="rnjejbEm-blq5eO75BZI-10" value="" style="endArrow=classic;html=1;exitX=1;exitY=0.5;exitDx=0;exitDy=0;entryX=0;entryY=0.5;entryDx=0;entryDy=0;" edge="1" parent="1" source="rnjejbEm-blq5eO75BZI-9" target="rnjejbEm-blq5eO75BZI-12">
          <mxGeometry width="50" height="50" relative="1" as="geometry">
            <mxPoint x="400" y="430" as="sourcePoint" />
            <mxPoint x="480" y="520" as="targetPoint" />
          </mxGeometry>
        </mxCell>
        <mxCell id="rnjejbEm-blq5eO75BZI-11" value="Permintaan resep oleh paseian" style="text;html=1;strokeColor=none;fillColor=none;align=center;verticalAlign=middle;whiteSpace=wrap;rounded=0;" vertex="1" parent="1">
          <mxGeometry x="364" y="490" width="110" height="20" as="geometry" />
        </mxCell>
        <mxCell id="rnjejbEm-blq5eO75BZI-12" value="Menunggu resep dari dokter" style="rounded=1;whiteSpace=wrap;html=1;fillColor=#FFFFFF;" vertex="1" parent="1">
          <mxGeometry x="480" y="495" width="90" height="50" as="geometry" />
        </mxCell>
        <mxCell id="rnjejbEm-blq5eO75BZI-13" value="" style="endArrow=classic;html=1;exitX=1;exitY=0.5;exitDx=0;exitDy=0;entryX=0;entryY=0.5;entryDx=0;entryDy=0;" edge="1" parent="1" source="rnjejbEm-blq5eO75BZI-12" target="rnjejbEm-blq5eO75BZI-15">
          <mxGeometry width="50" height="50" relative="1" as="geometry">
            <mxPoint x="370" y="530" as="sourcePoint" />
            <mxPoint x="680" y="520" as="targetPoint" />
          </mxGeometry>
        </mxCell>
        <mxCell id="rnjejbEm-blq5eO75BZI-14" value="Resep diterima" style="text;html=1;strokeColor=none;fillColor=none;align=center;verticalAlign=middle;whiteSpace=wrap;rounded=0;" vertex="1" parent="1">
          <mxGeometry x="570" y="490" width="110" height="20" as="geometry" />
        </mxCell>
        <mxCell id="rnjejbEm-blq5eO75BZI-15" value="&lt;font style=&quot;font-size: 11px&quot;&gt;Menunggu pasien menebus obat di apotik&lt;/font&gt;" style="rounded=1;whiteSpace=wrap;html=1;fillColor=#FFFFFF;" vertex="1" parent="1">
          <mxGeometry x="680" y="495" width="90" height="50" as="geometry" />
        </mxCell>
        <mxCell id="rnjejbEm-blq5eO75BZI-17" value="" style="endArrow=classic;html=1;exitX=0.5;exitY=1;exitDx=0;exitDy=0;entryX=0.5;entryY=1;entryDx=0;entryDy=0;" edge="1" parent="1" source="rnjejbEm-blq5eO75BZI-15" target="rnjejbEm-blq5eO75BZI-9">
          <mxGeometry width="50" height="50" relative="1" as="geometry">
            <mxPoint x="580" y="530" as="sourcePoint" />
            <mxPoint x="630" y="610" as="targetPoint" />
            <Array as="points">
              <mxPoint x="725" y="610" />
              <mxPoint x="315" y="610" />
            </Array>
          </mxGeometry>
        </mxCell>
        <mxCell id="rnjejbEm-blq5eO75BZI-19" value="Resep ditebus dan obat diterima" style="text;html=1;strokeColor=none;fillColor=none;align=center;verticalAlign=middle;whiteSpace=wrap;rounded=0;" vertex="1" parent="1">
          <mxGeometry x="420" y="616" width="220" height="20" as="geometry" />
        </mxCell>
      </root>
    </mxGraphModel>
  </diagram>
</mxfile>
